<svg xmlns="http://www.w3.org/2000/svg" width="1200" height="675" viewBox="0 0 1200 675" role="img" aria-label="Burnout - Wenn die Reserven leer sind – Blog">
  <defs>
    <linearGradient id="bg" x1="0" y1="0" x2="1" y2="1">
      <stop offset="0" stop-color="#7FA383"/>
      <stop offset="1" stop-color="#5E8262"/>
    </linearGradient>
    <clipPath id="frame"><rect width="1200" height="675"/></clipPath>
  </defs>
  <g clip-path="url(#frame)">
    <rect width="1200" height="675" fill="url(#bg)"/>
    <g opacity="0.16" transform="translate(690,25) scale(20)">
    <line x1="13" y1="28" x2="13" y2="5" stroke="#FFFFFF" stroke-width="1.5" stroke-linecap="round"/>
    <path d="M13 22 C19 20 24 13 21 7 C15 9 12 17 13 22Z" fill="#FFFFFF"/>
    <path d="M13 15 C7 13 3 7 6 2 C11 4 14 11 13 15Z" fill="#FFFFFF" fill-opacity="0.6"/>
    <circle cx="13" cy="4" r="2.5" fill="#FFFFFF" fill-opacity="0.35"/></g>
    <g transform="translate(108,108.91999999999996) scale(1.9)">
    <line x1="13" y1="28" x2="13" y2="5" stroke="#F5F0E8" stroke-width="1.5" stroke-linecap="round"/>
    <path d="M13 22 C19 20 24 13 21 7 C15 9 12 17 13 22Z" fill="#F5F0E8"/>
    <path d="M13 15 C7 13 3 7 6 2 C11 4 14 11 13 15Z" fill="#F5F0E8" fill-opacity="0.6"/>
    <circle cx="13" cy="4" r="2.5" fill="#F5F0E8" fill-opacity="0.35"/></g>
    <path d="M42 708Q63 707 97 706Q131 705 164 705Q211 705 254 706Q297 707 315 707Q420 707 473 663Q526 619 526 550Q526 515 511.5 481.5Q497 448 463.5 420.5Q430 393 374 376L374 374Q453 364 497.5 336.5Q542 309 560 272Q578 235 578 194Q578 137 549.5 93.5Q521 50 467 25Q413 0 338 0Q316 0 272 1.5Q228 3 166 3Q131 3 97 2.5Q63 2 42 0L42 20Q76 22 93.5 28Q111 34 117 52Q123 70 123 106L123 602Q123 639 117 656.5Q111 674 93.5 680.5Q76 687 42 688ZM290 688Q244 688 230 671Q216 654 216 602L216 106Q216 71 222 53Q228 35 244 29Q260 23 291 23Q389 23 433.5 68.5Q478 114 478 198Q478 275 436.5 317Q395 359 300 359L197 359Q197 359 197 367.5Q197 376 197 376L283 376Q342 376 374 398.5Q406 421 418 458.5Q430 496 430 539Q430 613 397.5 650.5Q365 688 290 688Z" transform="translate(112.00 195.92) scale(0.02300 -0.02300)" fill="#F5F0E8CC"/><path d="M297 708L297 688Q263 687 245.5 680.5Q228 674 222 656.5Q216 639 216 602L216 106Q216 70 222 52Q228 34 245.5 28.5Q263 23 297 23L370 23Q417 23 446.5 33Q476 43 493.5 64.5Q511 86 520 122Q529 158 534 210L557 210Q554 179 554 128Q554 109 555.5 73.5Q557 38 561 0Q510 2 446 2.5Q382 3 332 3Q310 3 275.5 3Q241 3 201 2.5Q161 2 120 1.5Q79 1 42 0L42 20Q76 22 93.5 28Q111 34 117 52Q123 70 123 106L123 602Q123 639 117 656.5Q111 674 93.5 680.5Q76 687 42 688L42 708Q63 707 97 706Q131 705 170 705Q205 705 239.5 706Q274 707 297 708Z" transform="translate(133.17 195.92) scale(0.02300 -0.02300)" fill="#F5F0E8CC"/><path d="M371 722Q466 722 537.5 679Q609 636 648.5 555.5Q688 475 688 360Q688 248 647.5 164Q607 80 535 33Q463 -14 370 -14Q275 -14 203.5 29Q132 72 92.5 153Q53 234 53 348Q53 460 94 544Q135 628 206.5 675Q278 722 371 722ZM367 704Q302 704 254 659Q206 614 179.5 535Q153 456 153 352Q153 246 182.5 167.5Q212 89 262.5 46.5Q313 4 374 4Q439 4 487 49Q535 94 561.5 173.5Q588 253 588 356Q588 463 558.5 541Q529 619 479 661.5Q429 704 367 704Z" transform="translate(153.69 195.92) scale(0.02300 -0.02300)" fill="#F5F0E8CC"/><path d="M376 722Q441 722 481 702.5Q521 683 556 657Q569 647 576 647Q595 647 601 708L624 708Q622 671 621 618Q620 565 620 478L597 478Q590 520 580 559Q570 598 547 626Q518 663 471 683.5Q424 704 374 704Q324 704 283.5 679.5Q243 655 214 609Q185 563 169.5 498.5Q154 434 154 353Q154 173 212 89.5Q270 6 392 6Q428 6 454.5 16.5Q481 27 496 37Q515 50 520 61.5Q525 73 525 92L525 188Q525 229 517 249Q509 269 487.5 276Q466 283 424 284L424 304Q442 303 466 302.5Q490 302 516.5 301.5Q543 301 565 301Q598 301 624.5 302Q651 303 669 304L669 284Q647 283 636 277Q625 271 621.5 253Q618 235 618 198L618 0L598 0Q597 17 590.5 37Q584 57 571 57Q565 57 559 54Q553 51 538 40Q505 15 468 0.5Q431 -14 382 -14Q279 -14 205.5 28.5Q132 71 93 151Q54 231 54 342Q54 459 96 544Q138 629 210.5 675.5Q283 722 376 722Z" transform="translate(177.74 195.92) scale(0.02300 -0.02300)" fill="#F5F0E8CC"/>
    <path d="M42 708Q63 707 97 706Q131 705 164 705Q211 705 254 706Q297 707 315 707Q420 707 473 663Q526 619 526 550Q526 515 511.5 481.5Q497 448 463.5 420.5Q430 393 374 376L374 374Q453 364 497.5 336.5Q542 309 560 272Q578 235 578 194Q578 137 549.5 93.5Q521 50 467 25Q413 0 338 0Q316 0 272 1.5Q228 3 166 3Q131 3 97 2.5Q63 2 42 0L42 20Q76 22 93.5 28Q111 34 117 52Q123 70 123 106L123 602Q123 639 117 656.5Q111 674 93.5 680.5Q76 687 42 688ZM290 688Q244 688 230 671Q216 654 216 602L216 106Q216 71 222 53Q228 35 244 29Q260 23 291 23Q389 23 433.5 68.5Q478 114 478 198Q478 275 436.5 317Q395 359 300 359L197 359Q197 359 197 367.5Q197 376 197 376L283 376Q342 376 374 398.5Q406 421 418 458.5Q430 496 430 539Q430 613 397.5 650.5Q365 688 290 688Z" transform="translate(110.00 289.28) scale(0.08800 -0.08800)" fill="#FCFAF5"/><path d="M483 526L483 108Q483 63 499.5 41.5Q516 20 559 20L559 -1Q528 2 497 2Q468 2 441.5 -1Q415 -4 393 -12L393 106Q368 41 322.5 13.5Q277 -14 229 -14Q194 -14 168 -4Q142 6 125 24Q106 44 99 76Q92 108 92 155L92 406Q92 451 76 472.5Q60 494 16 494L16 515Q48 512 78 512Q107 512 133.5 515.5Q160 519 182 526L182 133Q182 102 186 76Q190 50 206 34Q222 18 258 18Q297 18 327.5 42Q358 66 375.5 107Q393 148 393 199L393 406Q393 451 377 472.5Q361 494 317 494L317 515Q349 512 379 512Q408 512 434.5 515.5Q461 519 483 526Z" transform="translate(164.82 289.28) scale(0.08800 -0.08800)" fill="#FCFAF5"/><path d="M340 529Q367 529 387.5 518Q408 507 419.5 489.5Q431 472 431 450Q431 425 415.5 406Q400 387 374 387Q353 387 337 400.5Q321 414 321 439Q321 458 331.5 471.5Q342 485 355 493Q348 503 334 503Q303 503 277 484.5Q251 466 233 437Q215 408 205 375.5Q195 343 195 315L195 103Q195 54 223.5 37.5Q252 21 301 21L301 0Q278 1 236 2.5Q194 4 147 4Q113 4 79.5 2.5Q46 1 29 0L29 21Q70 21 87.5 36Q105 51 105 93L105 406Q105 451 89 472.5Q73 494 29 494L29 515Q61 512 91 512Q120 512 146.5 515.5Q173 519 195 526L195 401Q206 430 226.5 459.5Q247 489 276 509Q305 529 340 529Z" transform="translate(215.95 289.28) scale(0.08800 -0.08800)" fill="#FCFAF5"/><path d="M365 529Q403 529 428.5 519Q454 509 471 491Q490 471 498 441Q506 411 506 360L506 93Q506 51 523.5 36Q541 21 582 21L582 0Q565 1 530 2.5Q495 4 462 4Q429 4 397.5 2.5Q366 1 350 0L350 21Q386 21 401 36Q416 51 416 93L416 382Q416 413 411 439Q406 465 388.5 481Q371 497 335 497Q293 497 261.5 473Q230 449 212.5 407.5Q195 366 195 315L195 93Q195 51 210 36Q225 21 261 21L261 0Q245 1 213.5 2.5Q182 4 149 4Q116 4 81 2.5Q46 1 29 0L29 21Q70 21 87.5 36Q105 51 105 93L105 406Q105 451 89 472.5Q73 494 29 494L29 515Q61 512 91 512Q120 512 146.5 515.5Q173 519 195 526L195 408Q221 476 267.5 502.5Q314 529 365 529Z" transform="translate(255.11 289.28) scale(0.08800 -0.08800)" fill="#FCFAF5"/><path d="M274 529Q338 529 389 501Q440 473 470.5 413Q501 353 501 257Q501 161 470.5 101.5Q440 42 389 14Q338 -14 274 -14Q211 -14 159.5 14Q108 42 77.5 101.5Q47 161 47 257Q47 353 77.5 413Q108 473 159.5 501Q211 529 274 529ZM274 509Q217 509 180.5 450Q144 391 144 257Q144 123 180.5 64.5Q217 6 274 6Q331 6 367.5 64.5Q404 123 404 257Q404 391 367.5 450Q331 509 274 509Z" transform="translate(307.65 289.28) scale(0.08800 -0.08800)" fill="#FCFAF5"/><path d="M483 526L483 108Q483 63 499.5 41.5Q516 20 559 20L559 -1Q528 2 497 2Q468 2 441.5 -1Q415 -4 393 -12L393 106Q368 41 322.5 13.5Q277 -14 229 -14Q194 -14 168 -4Q142 6 125 24Q106 44 99 76Q92 108 92 155L92 406Q92 451 76 472.5Q60 494 16 494L16 515Q48 512 78 512Q107 512 133.5 515.5Q160 519 182 526L182 133Q182 102 186 76Q190 50 206 34Q222 18 258 18Q297 18 327.5 42Q358 66 375.5 107Q393 148 393 199L393 406Q393 451 377 472.5Q361 494 317 494L317 515Q349 512 379 512Q408 512 434.5 515.5Q461 519 483 526Z" transform="translate(355.87 289.28) scale(0.08800 -0.08800)" fill="#FCFAF5"/><path d="M190 681L190 514L338 514L338 494L190 494L190 107Q190 60 207 41Q224 22 254 22Q284 22 306 46.5Q328 71 344 129L364 124Q354 66 324.5 26Q295 -14 234 -14Q200 -14 178 -5.5Q156 3 139 19Q117 42 108.5 74Q100 106 100 159L100 494L4 494L4 514L100 514L100 667Q125 668 148 671Q171 674 190 681Z" transform="translate(407.00 289.28) scale(0.08800 -0.08800)" fill="#FCFAF5"/><path d="M430 298L430 240L69 240L69 298Z" transform="translate(458.57 289.28) scale(0.08800 -0.08800)" fill="#FCFAF5"/><path d="M907 708L907 688Q888 684 865 665.5Q842 647 828 601L639 -5Q637 -5 635 -5Q633 -5 631 -5Q629 -5 627 -5Q625 -5 623 -5L411 624Q398 663 382 675Q366 687 352 688L352 708Q370 707 397 706Q424 705 449 705Q488 705 522 706Q556 707 577 708L577 688Q547 687 529.5 682Q512 677 509.5 660Q507 643 519 604L668 143L654 131L786 546Q804 601 802.5 631.5Q801 662 780 674.5Q759 687 717 688L717 708Q746 707 776 706Q806 705 832 705Q858 705 875 706Q892 707 907 708ZM208 708L208 688Q182 686 170.5 678Q159 670 159.5 652.5Q160 635 170 604L325 131L300 106L440 553L455 529L290 -5Q288 -5 286 -5Q284 -5 282 -5Q280 -5 278 -5Q276 -5 274 -5L62 624Q49 663 29 675Q9 687 -7 688L-7 708Q13 707 42.5 706Q72 705 100 705Q133 705 161.5 706Q190 707 208 708Z" transform="translate(521.49 289.28) scale(0.08800 -0.08800)" fill="#FCFAF5"/><path d="M272 529Q360 529 409.5 475.5Q459 422 459 309L106 309L105 328L363 328Q365 377 355 418.5Q345 460 323.5 485Q302 510 268 510Q222 510 186.5 464Q151 418 144 318L147 314Q145 299 144 281Q143 263 143 245Q143 177 165 128Q187 79 222.5 53.5Q258 28 296 28Q326 28 353 37.5Q380 47 403 69Q426 91 443 128L463 120Q452 87 427 56Q402 25 364 5.5Q326 -14 276 -14Q204 -14 152.5 19Q101 52 73.5 110.5Q46 169 46 245Q46 333 74 396.5Q102 460 153 494.5Q204 529 272 529Z" transform="translate(595.06 289.28) scale(0.08800 -0.08800)" fill="#FCFAF5"/><path d="M365 529Q403 529 428.5 519Q454 509 471 491Q490 471 498 441Q506 411 506 360L506 93Q506 51 523.5 36Q541 21 582 21L582 0Q565 1 530 2.5Q495 4 462 4Q429 4 397.5 2.5Q366 1 350 0L350 21Q386 21 401 36Q416 51 416 93L416 382Q416 413 411 439Q406 465 388.5 481Q371 497 335 497Q293 497 261.5 473Q230 449 212.5 407.5Q195 366 195 315L195 93Q195 51 210 36Q225 21 261 21L261 0Q245 1 213.5 2.5Q182 4 149 4Q116 4 81 2.5Q46 1 29 0L29 21Q70 21 87.5 36Q105 51 105 93L105 406Q105 451 89 472.5Q73 494 29 494L29 515Q61 512 91 512Q120 512 146.5 515.5Q173 519 195 526L195 408Q221 476 267.5 502.5Q314 529 365 529Z" transform="translate(639.58 289.28) scale(0.08800 -0.08800)" fill="#FCFAF5"/><path d="M365 529Q403 529 428.5 519Q454 509 471 491Q490 471 498 441Q506 411 506 360L506 93Q506 51 523.5 36Q541 21 582 21L582 0Q565 1 530 2.5Q495 4 462 4Q429 4 397.5 2.5Q366 1 350 0L350 21Q386 21 401 36Q416 51 416 93L416 382Q416 413 411 439Q406 465 388.5 481Q371 497 335 497Q293 497 261.5 473Q230 449 212.5 407.5Q195 366 195 315L195 93Q195 51 210 36Q225 21 261 21L261 0Q245 1 213.5 2.5Q182 4 149 4Q116 4 81 2.5Q46 1 29 0L29 21Q70 21 87.5 36Q105 51 105 93L105 406Q105 451 89 472.5Q73 494 29 494L29 515Q61 512 91 512Q120 512 146.5 515.5Q173 519 195 526L195 408Q221 476 267.5 502.5Q314 529 365 529Z" transform="translate(692.12 289.28) scale(0.08800 -0.08800)" fill="#FCFAF5"/><path d="M484 784L484 109Q484 64 500.5 42.5Q517 21 560 21L560 0Q529 3 498 3Q469 3 442.5 0Q416 -3 394 -11L394 664Q394 709 378 730.5Q362 752 318 752L318 773Q350 770 380 770Q409 770 435.5 773.5Q462 777 484 784ZM274 529Q318 529 356.5 508Q395 487 408 436L395 426Q381 468 351.5 487Q322 506 282 506Q223 506 183.5 445Q144 384 145 257Q145 176 160.5 122.5Q176 69 206.5 42.5Q237 16 281 16Q323 16 357 52Q391 88 398 158L410 144Q402 68 361.5 27Q321 -14 252 -14Q190 -14 143.5 16Q97 46 72.5 106Q48 166 48 257Q48 348 79.5 408.5Q111 469 162.5 499Q214 529 274 529Z" transform="translate(110.00 391.36) scale(0.08800 -0.08800)" fill="#FCFAF5"/><path d="M143 765Q169 765 188 746Q207 727 207 701Q207 675 188 656Q169 637 143 637Q117 637 98 656Q79 675 79 701Q79 727 98 746Q117 765 143 765ZM195 526L195 93Q195 51 212.5 36Q230 21 271 21L271 0Q254 1 219.5 2.5Q185 4 150 4Q116 4 81 2.5Q46 1 29 0L29 21Q70 21 87.5 36Q105 51 105 93L105 406Q105 451 89 472.5Q73 494 29 494L29 515Q61 512 91 512Q120 512 146.5 515.5Q173 519 195 526Z" transform="translate(161.13 391.36) scale(0.08800 -0.08800)" fill="#FCFAF5"/><path d="M272 529Q360 529 409.5 475.5Q459 422 459 309L106 309L105 328L363 328Q365 377 355 418.5Q345 460 323.5 485Q302 510 268 510Q222 510 186.5 464Q151 418 144 318L147 314Q145 299 144 281Q143 263 143 245Q143 177 165 128Q187 79 222.5 53.5Q258 28 296 28Q326 28 353 37.5Q380 47 403 69Q426 91 443 128L463 120Q452 87 427 56Q402 25 364 5.5Q326 -14 276 -14Q204 -14 152.5 19Q101 52 73.5 110.5Q46 169 46 245Q46 333 74 396.5Q102 460 153 494.5Q204 529 272 529Z" transform="translate(186.91 391.36) scale(0.08800 -0.08800)" fill="#FCFAF5"/><path d="M42 708Q63 707 97 706Q131 705 164 705Q211 705 254 706Q297 707 315 707Q396 707 449.5 684Q503 661 529.5 621.5Q556 582 556 533Q556 503 544 469Q532 435 502.5 405Q473 375 422 355.5Q371 336 293 336L197 336L197 356L283 356Q354 356 391.5 378.5Q429 401 442.5 438.5Q456 476 456 522Q456 601 418.5 644.5Q381 688 290 688Q244 688 230 671Q216 654 216 602L216 106Q216 70 222 52Q228 34 245.5 28Q263 22 297 20L297 0Q274 2 239.5 2.5Q205 3 170 3Q131 3 97 2.5Q63 2 42 0L42 20Q76 22 93.5 28Q111 34 117 52Q123 70 123 106L123 602Q123 639 117 656.5Q111 674 93.5 680.5Q76 687 42 688ZM201 353Q255 351 286 348.5Q317 346 336.5 344Q356 342 374 339Q441 328 470.5 298.5Q500 269 514 207L539 105Q549 61 559.5 41.5Q570 22 592 23Q609 24 620.5 34Q632 44 645 61L660 50Q639 19 616.5 2.5Q594 -14 553 -14Q516 -14 488 8Q460 30 446 94L424 194Q415 237 403.5 268.5Q392 300 371.5 318Q351 336 311 336L203 336Z" transform="translate(253.35 391.36) scale(0.08800 -0.08800)" fill="#FCFAF5"/><path d="M272 529Q360 529 409.5 475.5Q459 422 459 309L106 309L105 328L363 328Q365 377 355 418.5Q345 460 323.5 485Q302 510 268 510Q222 510 186.5 464Q151 418 144 318L147 314Q145 299 144 281Q143 263 143 245Q143 177 165 128Q187 79 222.5 53.5Q258 28 296 28Q326 28 353 37.5Q380 47 403 69Q426 91 443 128L463 120Q452 87 427 56Q402 25 364 5.5Q326 -14 276 -14Q204 -14 152.5 19Q101 52 73.5 110.5Q46 169 46 245Q46 333 74 396.5Q102 460 153 494.5Q204 529 272 529Z" transform="translate(310.38 391.36) scale(0.08800 -0.08800)" fill="#FCFAF5"/><path d="M208 529Q248 529 276 516Q304 503 317 492Q350 465 357 528L380 528Q378 500 377 461.5Q376 423 376 358L353 358Q347 395 332.5 430Q318 465 290 487.5Q262 510 217 510Q182 510 158.5 490.5Q135 471 135 433Q135 403 153 381.5Q171 360 200 341.5Q229 323 263 301Q301 277 332 252Q363 227 381.5 197Q400 167 400 126Q400 80 376 49Q352 18 313.5 2Q275 -14 229 -14Q207 -14 187.5 -10.5Q168 -7 150 0Q140 5 129.5 12Q119 19 109 27Q99 35 91 26.5Q83 18 79 -7L56 -7Q58 25 59 71Q60 117 60 193L83 193Q90 137 103 95Q116 53 144 29.5Q172 6 222 6Q242 6 262.5 15Q283 24 297 45Q311 66 311 101Q311 145 279 173Q247 201 198 232Q162 255 130.5 278Q99 301 79.5 330Q60 359 60 400Q60 445 80.5 473.5Q101 502 135 515.5Q169 529 208 529Z" transform="translate(354.90 391.36) scale(0.08800 -0.08800)" fill="#FCFAF5"/><path d="M272 529Q360 529 409.5 475.5Q459 422 459 309L106 309L105 328L363 328Q365 377 355 418.5Q345 460 323.5 485Q302 510 268 510Q222 510 186.5 464Q151 418 144 318L147 314Q145 299 144 281Q143 263 143 245Q143 177 165 128Q187 79 222.5 53.5Q258 28 296 28Q326 28 353 37.5Q380 47 403 69Q426 91 443 128L463 120Q452 87 427 56Q402 25 364 5.5Q326 -14 276 -14Q204 -14 152.5 19Q101 52 73.5 110.5Q46 169 46 245Q46 333 74 396.5Q102 460 153 494.5Q204 529 272 529Z" transform="translate(394.24 391.36) scale(0.08800 -0.08800)" fill="#FCFAF5"/><path d="M340 529Q367 529 387.5 518Q408 507 419.5 489.5Q431 472 431 450Q431 425 415.5 406Q400 387 374 387Q353 387 337 400.5Q321 414 321 439Q321 458 331.5 471.5Q342 485 355 493Q348 503 334 503Q303 503 277 484.5Q251 466 233 437Q215 408 205 375.5Q195 343 195 315L195 103Q195 54 223.5 37.5Q252 21 301 21L301 0Q278 1 236 2.5Q194 4 147 4Q113 4 79.5 2.5Q46 1 29 0L29 21Q70 21 87.5 36Q105 51 105 93L105 406Q105 451 89 472.5Q73 494 29 494L29 515Q61 512 91 512Q120 512 146.5 515.5Q173 519 195 526L195 401Q206 430 226.5 459.5Q247 489 276 509Q305 529 340 529Z" transform="translate(438.77 391.36) scale(0.08800 -0.08800)" fill="#FCFAF5"/><path d="M486 515L486 495Q467 493 451 478Q435 463 421 425L257 -5Q253 -5 249 -5Q245 -5 240 -5L56 438Q40 477 24.5 485.5Q9 494 -2 494L-2 515Q18 514 39.5 512.5Q61 511 86 511Q117 511 151.5 512Q186 513 216 515L216 494Q191 494 171.5 490.5Q152 487 146.5 471Q141 455 156 416L281 107L275 102L389 401Q402 434 399.5 453.5Q397 473 379.5 483Q362 493 326 495L326 515Q344 514 357 513.5Q370 513 382.5 512.5Q395 512 410 512Q433 512 451.5 513Q470 514 486 515Z" transform="translate(477.93 391.36) scale(0.08800 -0.08800)" fill="#FCFAF5"/><path d="M272 529Q360 529 409.5 475.5Q459 422 459 309L106 309L105 328L363 328Q365 377 355 418.5Q345 460 323.5 485Q302 510 268 510Q222 510 186.5 464Q151 418 144 318L147 314Q145 299 144 281Q143 263 143 245Q143 177 165 128Q187 79 222.5 53.5Q258 28 296 28Q326 28 353 37.5Q380 47 403 69Q426 91 443 128L463 120Q452 87 427 56Q402 25 364 5.5Q326 -14 276 -14Q204 -14 152.5 19Q101 52 73.5 110.5Q46 169 46 245Q46 333 74 396.5Q102 460 153 494.5Q204 529 272 529Z" transform="translate(520.17 391.36) scale(0.08800 -0.08800)" fill="#FCFAF5"/><path d="M365 529Q403 529 428.5 519Q454 509 471 491Q490 471 498 441Q506 411 506 360L506 93Q506 51 523.5 36Q541 21 582 21L582 0Q565 1 530 2.5Q495 4 462 4Q429 4 397.5 2.5Q366 1 350 0L350 21Q386 21 401 36Q416 51 416 93L416 382Q416 413 411 439Q406 465 388.5 481Q371 497 335 497Q293 497 261.5 473Q230 449 212.5 407.5Q195 366 195 315L195 93Q195 51 210 36Q225 21 261 21L261 0Q245 1 213.5 2.5Q182 4 149 4Q116 4 81 2.5Q46 1 29 0L29 21Q70 21 87.5 36Q105 51 105 93L105 406Q105 451 89 472.5Q73 494 29 494L29 515Q61 512 91 512Q120 512 146.5 515.5Q173 519 195 526L195 408Q221 476 267.5 502.5Q314 529 365 529Z" transform="translate(564.70 391.36) scale(0.08800 -0.08800)" fill="#FCFAF5"/><path d="M188 784L188 93Q188 51 205.5 36Q223 21 264 21L264 0Q247 1 212.5 2.5Q178 4 143 4Q109 4 74 2.5Q39 1 22 0L22 21Q63 21 80.5 36Q98 51 98 93L98 664Q98 709 82 730.5Q66 752 22 752L22 773Q54 770 84 770Q113 770 139.5 773.5Q166 777 188 784Z" transform="translate(110.00 493.44) scale(0.08800 -0.08800)" fill="#FCFAF5"/><path d="M272 529Q360 529 409.5 475.5Q459 422 459 309L106 309L105 328L363 328Q365 377 355 418.5Q345 460 323.5 485Q302 510 268 510Q222 510 186.5 464Q151 418 144 318L147 314Q145 299 144 281Q143 263 143 245Q143 177 165 128Q187 79 222.5 53.5Q258 28 296 28Q326 28 353 37.5Q380 47 403 69Q426 91 443 128L463 120Q452 87 427 56Q402 25 364 5.5Q326 -14 276 -14Q204 -14 152.5 19Q101 52 73.5 110.5Q46 169 46 245Q46 333 74 396.5Q102 460 153 494.5Q204 529 272 529Z" transform="translate(134.29 493.44) scale(0.08800 -0.08800)" fill="#FCFAF5"/><path d="M272 529Q360 529 409.5 475.5Q459 422 459 309L106 309L105 328L363 328Q365 377 355 418.5Q345 460 323.5 485Q302 510 268 510Q222 510 186.5 464Q151 418 144 318L147 314Q145 299 144 281Q143 263 143 245Q143 177 165 128Q187 79 222.5 53.5Q258 28 296 28Q326 28 353 37.5Q380 47 403 69Q426 91 443 128L463 120Q452 87 427 56Q402 25 364 5.5Q326 -14 276 -14Q204 -14 152.5 19Q101 52 73.5 110.5Q46 169 46 245Q46 333 74 396.5Q102 460 153 494.5Q204 529 272 529Z" transform="translate(178.82 493.44) scale(0.08800 -0.08800)" fill="#FCFAF5"/><path d="M340 529Q367 529 387.5 518Q408 507 419.5 489.5Q431 472 431 450Q431 425 415.5 406Q400 387 374 387Q353 387 337 400.5Q321 414 321 439Q321 458 331.5 471.5Q342 485 355 493Q348 503 334 503Q303 503 277 484.5Q251 466 233 437Q215 408 205 375.5Q195 343 195 315L195 103Q195 54 223.5 37.5Q252 21 301 21L301 0Q278 1 236 2.5Q194 4 147 4Q113 4 79.5 2.5Q46 1 29 0L29 21Q70 21 87.5 36Q105 51 105 93L105 406Q105 451 89 472.5Q73 494 29 494L29 515Q61 512 91 512Q120 512 146.5 515.5Q173 519 195 526L195 401Q206 430 226.5 459.5Q247 489 276 509Q305 529 340 529Z" transform="translate(223.34 493.44) scale(0.08800 -0.08800)" fill="#FCFAF5"/><path d="M208 529Q248 529 276 516Q304 503 317 492Q350 465 357 528L380 528Q378 500 377 461.5Q376 423 376 358L353 358Q347 395 332.5 430Q318 465 290 487.5Q262 510 217 510Q182 510 158.5 490.5Q135 471 135 433Q135 403 153 381.5Q171 360 200 341.5Q229 323 263 301Q301 277 332 252Q363 227 381.5 197Q400 167 400 126Q400 80 376 49Q352 18 313.5 2Q275 -14 229 -14Q207 -14 187.5 -10.5Q168 -7 150 0Q140 5 129.5 12Q119 19 109 27Q99 35 91 26.5Q83 18 79 -7L56 -7Q58 25 59 71Q60 117 60 193L83 193Q90 137 103 95Q116 53 144 29.5Q172 6 222 6Q242 6 262.5 15Q283 24 297 45Q311 66 311 101Q311 145 279 173Q247 201 198 232Q162 255 130.5 278Q99 301 79.5 330Q60 359 60 400Q60 445 80.5 473.5Q101 502 135 515.5Q169 529 208 529Z" transform="translate(282.57 493.44) scale(0.08800 -0.08800)" fill="#FCFAF5"/><path d="M143 765Q169 765 188 746Q207 727 207 701Q207 675 188 656Q169 637 143 637Q117 637 98 656Q79 675 79 701Q79 727 98 746Q117 765 143 765ZM195 526L195 93Q195 51 212.5 36Q230 21 271 21L271 0Q254 1 219.5 2.5Q185 4 150 4Q116 4 81 2.5Q46 1 29 0L29 21Q70 21 87.5 36Q105 51 105 93L105 406Q105 451 89 472.5Q73 494 29 494L29 515Q61 512 91 512Q120 512 146.5 515.5Q173 519 195 526Z" transform="translate(321.90 493.44) scale(0.08800 -0.08800)" fill="#FCFAF5"/><path d="M365 529Q403 529 428.5 519Q454 509 471 491Q490 471 498 441Q506 411 506 360L506 93Q506 51 523.5 36Q541 21 582 21L582 0Q565 1 530 2.5Q495 4 462 4Q429 4 397.5 2.5Q366 1 350 0L350 21Q386 21 401 36Q416 51 416 93L416 382Q416 413 411 439Q406 465 388.5 481Q371 497 335 497Q293 497 261.5 473Q230 449 212.5 407.5Q195 366 195 315L195 93Q195 51 210 36Q225 21 261 21L261 0Q245 1 213.5 2.5Q182 4 149 4Q116 4 81 2.5Q46 1 29 0L29 21Q70 21 87.5 36Q105 51 105 93L105 406Q105 451 89 472.5Q73 494 29 494L29 515Q61 512 91 512Q120 512 146.5 515.5Q173 519 195 526L195 408Q221 476 267.5 502.5Q314 529 365 529Z" transform="translate(347.69 493.44) scale(0.08800 -0.08800)" fill="#FCFAF5"/><path d="M484 784L484 109Q484 64 500.5 42.5Q517 21 560 21L560 0Q529 3 498 3Q469 3 442.5 0Q416 -3 394 -11L394 664Q394 709 378 730.5Q362 752 318 752L318 773Q350 770 380 770Q409 770 435.5 773.5Q462 777 484 784ZM274 529Q318 529 356.5 508Q395 487 408 436L395 426Q381 468 351.5 487Q322 506 282 506Q223 506 183.5 445Q144 384 145 257Q145 176 160.5 122.5Q176 69 206.5 42.5Q237 16 281 16Q323 16 357 52Q391 88 398 158L410 144Q402 68 361.5 27Q321 -14 252 -14Q190 -14 143.5 16Q97 46 72.5 106Q48 166 48 257Q48 348 79.5 408.5Q111 469 162.5 499Q214 529 274 529Z" transform="translate(400.22 493.44) scale(0.08800 -0.08800)" fill="#FCFAF5"/>
    <rect x="112" y="523.4399999999999" width="110" height="5" rx="2.5" fill="#FCFAF5" opacity="0.9"/>
  </g>
</svg>